# xmcd
#
# Track frame offsets:
#	150
#	16063
#	39028
#	57039
#	70101
#	83250
#	99828
#	112014
#	127976
#	141916
#	152723
#
# Disc length: 2233 seconds
#
# Revision: 0
# Processed by: cddbd v1.5.2PL0 Copyright (c) Steve Scherf et al.
# Submitted via: EasyCDDAExtractor 10.2.0.1
#
DISCID=7608b70b
DTITLE=Various Artist - HMG Souther Gospel Vol.33
DYEAR=2004
DGENRE=Gospel
TTITLE0=Curt Collins - Backyard Hero
TTITLE1=Charles Johnson - Staanding On The Cornerstone
TTITLE2=April Metcalf - River Of Mercy
TTITLE3=John Sample - My Children
TTITLE4=Lawrence Bishop - The Main Thing
TTITLE5=Denver Lamb - Rescue Me
TTITLE6=Reflections Of Praise - Amazing Grace To Me
TTITLE7=Mike Hubert - Teach me How To Pray
TTITLE8=Tom Lanza - Jesus Is Alive
TTITLE9=James McMickin - Good Lord Willing And The Saints Don't Rise
TTITLE10=Carl Chastain - Just A Little Talk With Jesus
EXTD=
EXTT0=
EXTT1=
EXTT2=
EXTT3=
EXTT4=
EXTT5=
EXTT6=
EXTT7=
EXTT8=
EXTT9=
EXTT10=
PLAYORDER=
